<?xml version="1.0" standalone="no"?>
<!DOCTYPE svg PUBLIC "-//W3C//DTD SVG 20010904//EN"
 "http://www.w3.org/TR/2001/REC-SVG-20010904/DTD/svg10.dtd">
<svg version="1.0" xmlns="http://www.w3.org/2000/svg"
 width="500.000000pt" height="500.000000pt" viewBox="0 0 500.000000 500.000000"
 preserveAspectRatio="xMidYMid meet">
<metadata>
Created by potrace 1.14, written by Peter Selinger 2001-2017
</metadata>
<g transform="translate(0.000000,500.000000) scale(0.100000,-0.100000)"
fill="#000000" stroke="none">
<path d="M2203 4949 c-6 -6 -27 -11 -47 -11 -20 0 -36 -3 -36 -8 0 -4 -11 -5
-24 -3 -13 3 -27 0 -31 -7 -5 -8 -10 -8 -21 1 -8 6 -14 7 -14 2 0 -5 -8 -10
-17 -11 -21 -2 -58 -10 -58 -12 0 -1 -13 -3 -28 -5 -16 -2 -36 -10 -45 -17
-13 -11 -14 -11 -8 0 6 10 0 9 -23 -2 -17 -9 -31 -14 -31 -11 0 3 -16 -1 -35
-9 -19 -8 -35 -12 -35 -9 0 3 -7 0 -15 -7 -8 -6 -19 -9 -25 -5 -5 3 -10 1 -10
-5 0 -6 -4 -9 -9 -5 -5 3 -13 0 -16 -6 -4 -5 -13 -8 -20 -5 -8 3 -15 1 -17 -4
-2 -4 -12 -10 -23 -12 -11 -1 -26 -9 -33 -15 -7 -7 -21 -13 -30 -13 -10 0 -28
-7 -40 -16 -12 -8 -22 -13 -22 -10 0 3 -15 -3 -32 -14 -18 -11 -41 -20 -50
-20 -10 0 -18 -4 -18 -8 0 -9 -44 -33 -68 -38 -8 -1 -22 -10 -33 -20 -10 -9
-19 -13 -19 -8 0 5 -5 1 -11 -9 -6 -9 -14 -15 -20 -12 -5 4 -9 2 -9 -4 0 -5
-10 -13 -22 -17 -13 -4 -30 -15 -39 -25 -9 -10 -19 -16 -23 -12 -3 3 -6 1 -6
-5 0 -7 -7 -12 -15 -12 -8 0 -15 -3 -15 -8 0 -4 -16 -16 -35 -26 -19 -11 -35
-23 -35 -28 0 -4 -7 -8 -15 -8 -8 0 -15 -4 -15 -9 0 -5 -9 -13 -20 -16 -11 -4
-18 -10 -15 -15 3 -5 -5 -12 -19 -16 -14 -3 -28 -15 -31 -25 -4 -10 -11 -19
-17 -19 -7 0 -28 -15 -47 -34 -121 -116 -159 -155 -154 -160 4 -3 -1 -6 -10
-6 -9 0 -17 -4 -17 -9 0 -9 -60 -79 -92 -109 -10 -9 -18 -21 -18 -26 0 -5 -11
-19 -24 -31 -14 -13 -22 -26 -19 -29 3 -3 -2 -8 -11 -12 -9 -3 -16 -12 -16
-18 0 -7 -11 -23 -25 -36 -14 -13 -25 -29 -25 -37 0 -7 -9 -21 -19 -30 -11 -9
-18 -20 -15 -25 3 -4 0 -8 -6 -8 -7 0 -10 -7 -6 -15 3 -9 0 -15 -10 -15 -8 0
-12 -4 -9 -10 3 -5 1 -10 -5 -10 -6 0 -8 -4 -5 -10 3 -5 2 -10 -3 -10 -6 0
-15 -13 -21 -30 -5 -16 -15 -30 -22 -30 -7 0 -9 -3 -6 -7 4 -3 2 -12 -4 -20
-6 -7 -8 -13 -5 -13 4 0 0 -7 -8 -16 -9 -8 -14 -19 -11 -24 3 -4 -2 -13 -10
-20 -8 -7 -12 -16 -9 -21 3 -5 0 -9 -6 -9 -6 0 -8 -4 -5 -10 3 -5 1 -10 -5
-10 -7 0 -10 -6 -8 -12 3 -7 -1 -19 -9 -26 -7 -8 -11 -18 -8 -23 4 -5 1 -9 -6
-9 -7 0 -10 -3 -7 -6 4 -3 0 -17 -7 -31 -8 -15 -12 -30 -9 -35 3 -4 1 -8 -4
-8 -8 0 -26 -47 -23 -58 1 -1 -6 -18 -14 -38 -8 -20 -13 -40 -10 -44 3 -4 -2
-11 -10 -14 -10 -4 -14 -14 -11 -31 3 -14 0 -25 -5 -25 -5 0 -8 -3 -8 -7 1 -5
0 -11 -1 -15 -1 -5 -4 -17 -5 -28 -1 -11 -4 -21 -5 -22 -1 -2 -4 -14 -5 -28
-2 -26 -11 -54 -25 -81 -5 -10 -4 -21 3 -28 6 -6 7 -11 1 -11 -10 0 -17 -46
-17 -102 1 -15 -3 -26 -7 -23 -4 2 -6 -11 -5 -30 2 -20 -1 -38 -6 -41 -5 -3
-9 -10 -9 -15 0 -6 4 -8 8 -5 5 3 9 -1 9 -9 0 -8 -4 -12 -8 -9 -5 3 -7 -91 -4
-208 4 -251 7 -308 15 -308 4 0 7 -15 8 -32 2 -78 6 -97 15 -91 5 3 4 -5 -3
-17 -9 -18 -9 -21 0 -15 8 5 11 3 8 -6 -3 -8 2 -23 11 -33 9 -11 11 -16 4 -13
-8 5 -11 0 -10 -13 1 -11 5 -20 9 -20 4 0 8 -13 8 -30 0 -16 4 -30 10 -30 5 0
7 -6 4 -14 -3 -8 -1 -17 5 -21 6 -3 11 -12 11 -18 0 -7 -4 -6 -10 3 -16 24
-11 5 9 -41 11 -24 17 -47 15 -51 -3 -4 0 -8 7 -8 7 0 10 -3 6 -6 -3 -4 1 -23
9 -43 9 -20 17 -40 18 -46 1 -5 7 -20 14 -32 7 -12 11 -26 10 -30 -1 -4 3 -18
10 -30 7 -13 10 -23 7 -23 -4 0 1 -7 10 -16 9 -9 19 -29 22 -45 3 -16 9 -29
14 -29 5 0 8 -3 7 -7 -1 -5 15 -42 35 -83 20 -41 37 -70 37 -65 0 6 8 -6 17
-25 10 -19 23 -41 30 -48 7 -8 11 -18 8 -23 -4 -5 -1 -9 4 -9 6 0 11 -4 11
-10 0 -9 19 -35 48 -65 6 -8 12 -18 12 -24 0 -6 3 -11 8 -11 4 0 18 -18 32
-40 13 -22 28 -40 32 -40 4 0 8 -5 8 -11 0 -15 26 -39 34 -32 3 4 6 -1 6 -9 0
-9 15 -32 33 -51 17 -19 51 -55 74 -80 23 -25 44 -43 47 -39 3 3 6 1 6 -5 0
-12 57 -73 68 -73 4 0 14 -9 22 -19 7 -11 17 -18 22 -15 4 3 8 -1 8 -8 0 -14
39 -44 52 -40 5 1 7 -1 5 -6 -1 -4 3 -9 8 -11 6 -3 22 -16 37 -30 39 -37 56
-51 63 -51 4 0 13 -6 20 -13 35 -30 45 -37 45 -30 0 4 5 0 11 -10 6 -9 14 -15
20 -12 5 4 9 2 9 -2 0 -13 56 -43 65 -35 5 4 5 1 1 -5 -4 -7 -2 -13 3 -13 6 0
13 0 16 0 3 0 14 -9 25 -20 11 -11 27 -20 36 -20 9 0 12 -5 8 -12 -4 -7 -3 -8
5 -4 6 4 25 -2 41 -14 17 -12 30 -18 30 -13 0 4 4 3 8 -2 8 -12 143 -75 160
-75 7 0 12 -5 12 -11 0 -5 5 -7 10 -4 6 4 21 0 33 -8 12 -7 36 -18 52 -22 17
-5 33 -9 38 -10 4 -2 14 -3 23 -4 8 0 13 -5 10 -10 -4 -5 5 -8 19 -7 15 2 22
-1 18 -7 -4 -7 1 -8 12 -3 10 4 21 2 24 -3 4 -5 20 -12 36 -15 17 -2 30 -5 30
-6 0 -2 43 -10 70 -13 11 -1 22 -5 25 -9 3 -3 23 -9 45 -11 22 -2 47 -7 55
-10 8 -3 22 -5 30 -6 8 0 35 -3 60 -6 25 -3 54 -7 65 -7 11 -1 23 -7 27 -12 5
-7 8 -6 8 3 0 9 4 10 13 4 19 -15 387 -16 405 -1 10 8 13 9 9 2 -4 -8 2 -11
18 -10 14 0 25 3 25 6 0 3 19 6 43 7 23 1 56 5 72 8 17 3 37 6 45 6 8 0 49 8
90 16 41 9 81 16 88 16 6 0 12 4 12 8 0 4 6 7 13 6 33 -1 58 4 54 11 -3 4 9 8
26 9 48 4 57 6 57 13 0 3 10 6 22 7 11 1 24 6 27 10 3 4 11 8 16 9 30 2 74 17
70 24 -2 4 7 6 20 4 14 -1 25 2 25 7 0 5 12 12 28 15 15 4 33 11 40 17 6 5 12
6 12 1 0 -5 4 -3 9 4 4 7 14 14 22 16 8 1 24 8 37 14 12 7 28 10 34 6 6 -4 8
-3 4 4 -3 6 8 15 29 22 22 7 33 16 28 23 -3 7 -2 9 2 5 9 -8 94 37 107 56 4 6
8 7 8 3 0 -9 142 84 178 116 12 11 22 17 22 14 0 -4 9 1 19 10 43 41 73 63 84
63 5 0 8 3 4 6 -7 7 15 34 24 28 3 -1 58 49 123 111 65 63 115 115 111 115 -3
0 8 14 25 30 17 17 28 30 25 30 -3 0 15 21 40 47 25 27 45 52 45 56 0 5 6 15
13 22 29 34 37 45 37 55 0 6 5 8 10 5 6 -3 10 1 10 10 0 9 16 37 35 62 19 25
33 49 30 53 -3 4 2 11 11 14 8 3 12 10 9 16 -3 5 -1 10 4 10 6 0 11 7 11 16 0
8 4 12 10 9 6 -3 7 1 4 9 -3 9 -1 16 5 16 6 0 11 7 11 15 0 8 5 15 12 15 6 0
9 3 5 6 -3 3 5 25 18 49 13 23 21 45 18 49 -4 3 -1 6 6 6 7 0 9 4 6 10 -3 5
-1 10 5 10 6 0 8 5 5 10 -3 6 -1 10 6 10 7 0 9 3 6 7 -4 3 0 17 8 30 9 13 13
29 9 35 -4 6 -3 8 3 5 5 -3 18 23 29 59 10 35 22 64 26 64 4 0 5 9 3 20 -2 11
1 20 6 20 6 0 7 5 4 10 -3 6 -1 10 6 10 7 0 9 3 6 7 -4 3 -1 13 6 21 9 13 9
14 0 8 -9 -5 -11 -2 -7 8 3 9 10 16 16 16 5 0 6 5 3 10 -4 6 -1 17 5 25 10 12
10 15 -1 15 -9 0 -10 3 -4 8 10 7 16 24 19 52 1 9 5 21 10 28 4 6 5 12 2 12
-2 0 1 21 8 48 7 26 12 57 11 69 -1 13 1 23 5 23 6 0 11 42 12 90 0 8 2 22 5
30 13 34 13 51 1 44 -10 -6 -9 -3 0 8 11 13 13 65 9 245 -2 125 -6 237 -9 248
-3 11 -1 26 5 33 8 10 7 12 -3 10 -9 -2 -14 7 -15 27 -1 17 -3 32 -5 35 -1 3
-3 23 -5 45 -1 22 -3 40 -5 40 -3 0 -11 39 -12 63 0 12 -4 22 -9 22 -4 0 -6 9
-4 20 2 11 0 22 -5 25 -5 3 -7 12 -3 20 3 8 1 15 -4 15 -5 0 -10 17 -11 38 -2
20 -7 39 -12 40 -6 2 -10 14 -10 26 0 12 -5 27 -12 34 -7 7 -8 12 -4 12 5 0 3
7 -4 15 -7 8 -10 22 -6 30 3 8 2 15 -3 15 -5 0 -15 20 -22 45 -7 25 -17 45
-22 45 -4 0 -6 4 -2 9 3 5 1 12 -5 16 -6 4 -8 11 -5 16 4 5 1 9 -6 9 -7 0 -9
3 -6 7 4 3 2 12 -4 20 -6 7 -8 13 -5 13 4 0 0 7 -9 16 -9 9 -19 29 -22 45 -3
16 -9 29 -14 29 -7 0 -24 41 -20 49 2 2 -2 7 -7 10 -6 3 -12 13 -14 21 -2 8
-10 22 -18 30 -8 8 -16 21 -18 29 -1 7 -9 20 -17 28 -9 8 -13 18 -10 23 3 4
-2 10 -10 14 -8 3 -15 12 -15 20 0 8 -4 16 -8 18 -4 2 -23 27 -42 56 -18 28
-37 52 -42 52 -4 0 -8 5 -8 10 0 6 -5 16 -10 23 -6 7 -20 23 -31 37 -45 56
-95 114 -119 138 -14 15 -24 30 -22 34 1 4 -2 8 -7 8 -5 0 -39 29 -76 65 -36
36 -70 65 -75 65 -5 0 -12 9 -15 20 -4 11 -10 18 -15 15 -5 -3 -16 5 -24 17
-9 12 -16 18 -16 13 0 -6 -5 -2 -11 8 -5 9 -15 17 -21 17 -6 0 -18 8 -27 18
-9 10 -32 29 -51 42 -19 13 -41 30 -48 37 -8 7 -18 11 -23 8 -5 -4 -9 1 -9 10
0 9 -4 14 -8 11 -5 -3 -18 4 -30 14 -12 11 -25 20 -30 20 -5 0 -15 7 -22 15
-7 9 -15 13 -18 11 -2 -3 -11 2 -19 10 -8 8 -19 12 -24 9 -5 -4 -9 1 -9 9 0
10 -6 13 -15 10 -8 -4 -15 -2 -15 3 0 5 -16 15 -35 23 -19 8 -35 17 -35 22 0
4 -9 8 -20 8 -11 0 -20 5 -20 11 0 5 -4 7 -10 4 -5 -3 -10 -2 -10 4 0 6 -7 8
-15 5 -8 -4 -15 -1 -15 5 0 6 -8 11 -17 11 -10 0 -27 7 -37 15 -10 8 -23 12
-27 9 -5 -3 -9 0 -9 5 0 6 -11 11 -24 11 -13 0 -26 3 -28 8 -1 4 -43 20 -93
37 -82 27 -104 32 -142 37 -7 1 -13 5 -13 10 0 4 -14 8 -31 8 -21 0 -28 4 -23
13 6 9 4 9 -8 -1 -9 -7 -19 -9 -21 -5 -3 5 -20 10 -38 11 -18 2 -36 6 -39 10
-5 7 -13 8 -97 14 -24 2 -43 6 -43 10 0 3 -10 4 -22 0 -16 -4 -19 -2 -13 8 6
10 4 11 -6 4 -19 -12 -39 -14 -39 -4 0 4 -101 8 -226 9 -167 1 -223 -2 -218
-11 5 -7 3 -8 -7 -2 -17 11 -69 12 -62 2 2 -5 -3 -8 -12 -8 -9 0 -13 5 -10 10
8 13 2 13 -12 -1z"/>
</g>
</svg>
