<svg xmlns="http://www.w3.org/2000/svg">
    viewBox="0 0 576 576"
    <defs>
        
<g id="homeico"><path d="M280.4 148.3L96 300.1V464a16 16 0 0 0 16 16l112.1-.3a16 16 0 0 0 15.9-16V368a16 16 0 0 1 16-16h64a16 16 0 0 1 16 16v95.6a16 16 0 0 0 16 16.1L464 480a16 16 0 0 0 16-16V300L295.7 148.3a12.2 12.2 0 0 0 -15.3 0zM571.6 251.5L488 182.6V44.1a12 12 0 0 0 -12-12h-56a12 12 0 0 0 -12 12v72.6L318.5 43a48 48 0 0 0 -61 0L4.3 251.5a12 12 0 0 0 -1.6 16.9l25.5 31A12 12 0 0 0 45.2 301l235.2-193.7a12.2 12.2 0 0 1 15.3 0L530.9 301a12 12 0 0 0 16.9-1.6l25.5-31a12 12 0 0 0 -1.7-16.9z"/></g>

<g id="teamico_a"><path d="M460.8,238.93H358.4c-7.828,0-14.652,5.326-16.555,12.919l-28.45,113.783L272.947,15.1 c-1.089-9.363-9.561-16.07-18.924-14.981c-7.323,0.852-13.271,6.308-14.749,13.53L185.19,284.157l-32.188-117.982 c-2.465-9.098-11.839-14.474-20.936-12.009c-5.181,1.404-9.399,5.163-11.388,10.148L90.846,238.93H17.067 C7.641,238.93,0,246.571,0,255.996s7.641,17.067,17.067,17.067H102.4c6.984,0.003,13.264-4.25,15.855-10.735l15.206-38.042 l37.803,138.598c2.025,7.427,8.771,12.58,16.469,12.578h0.58c7.892-0.268,14.57-5.915,16.145-13.653l47.002-235.093 l38.792,336.026c0.939,8.196,7.606,14.547,15.838,15.087l1.109,0.034c7.827-0.01,14.644-5.342,16.538-12.937l47.992-191.863H460.8 c9.426,0,17.067-7.641,17.067-17.067S470.226,238.93,460.8,238.93z"/></g>
<g id="teamico">
<path d="M21.604 18.594c-.009-.481-.222-1.262-.539-1.511a.246.246 0 00-.388.118 7.113 7.113 0 01-.346.875 6.373 6.373 0 01-1.568 2.209c-.84.777-1.84 1.331-2.817 1.725-.244.099-.485.187-.722.266l-.006.002c-.158.053-.314.101-.467.146l-.003.001-.22.063-.012.003c-.148.04-.292.078-.433.112l-.017.004-.192.045-.016.004c-.135.03-.264.058-.39.083l-.025.005a22.224 22.224 0 01-.52.093l-.028.004-.136.02-.017.004a23.763 23.763 0 01-.28.038l-.14.017a8.982 8.982 0 01-.543.05h-.004c-4.09.429 1.038 1.325 4.895.647l.026-.005a13.344 13.344 0 00.683-.142c.036-.01.074-.018.11-.027a6.64 6.64 0 001.387-.503c2.386-1.155 2.617-3.084 2.617-3.084.08-.366.12-.782.111-1.262m-10.28-2.832a1.768 1.768 0 00-.3-.535c-.446-.695-1.066-1.322-1.694-1.848a10.72 10.72 0 00-1.043-.792c-.807-.557-1.44-.88-1.44-.88h-.002c-.96-.48-1.836-.01-2.067 1.085a4.605 4.605 0 00.615 3.48c.46.738 1.169 1.088 2.018 1.167.53.05 1.063.079 1.595.117.433.01.865.04 1.286-.103.555-.188.983-.526 1.078-1.123a1.187 1.187 0 00-.045-.568m3.368 1.695c.606.08 1.211.178 1.822.213.82.048 1.44-.215 1.9-.71.575-.62.84-1.341.795-2.15-.045-.814-.759-1.295-1.725-1.127-.863.149-1.628.485-2.402.795-.684.273-1.326.602-1.828 1.068-.707.656-.306 1.525.822 1.798.202.049.41.076.616.113M0 12.532c.023-.375-.033-.812.038-1.248.119-.732.508-1.265 1.166-1.598.163-.082.262-.167.3-.369.286-1.572.917-3 1.85-4.296.107-.148.192-.25.055-.444-.175-.245-.05-.47.132-.675C4.856 2.428 6.44 1.336 8.323.755c4.493-1.386 8.453-.438 11.835 2.842.312.303.729.608.33 1.14-.066.088.052.166.103.235a10.426 10.426 0 011.895 4.4c.031.18.142.236.272.301.813.412 1.212 1.092 1.216 1.985.003.806.083 1.617-.052 2.419-.193 1.153-1.367 1.957-2.503 1.722-.345-.072-.436-.337-.434-.66.006-1.324.032-2.647 0-3.97-.085-3.555-1.69-6.233-4.8-7.942-5.201-2.86-11.874.31-13.02 6.141-.198 1.014-.164 2.032-.153 3.053.01.95 0 1.901-.024 2.851-.008.334-.204.522-.56.539-1.45.067-2.425-.854-2.428-2.304v-.975Z"/></g>
<g id="radioenlico">
<path class="cls-2" d="M12,8a3,3,0,0,0-1,5.83A1,1,0,0,0,11,14v6a1,1,0,0,0,2,0V14a1,1,0,0,0,0-.17A3,3,0,0,0,12,8Z"/><path class="cls-2" d="M3.5,11A6.87,6.87,0,0,1,6.14,5.77,1,1,0,1,0,4.86,4.23,8.84,8.84,0,0,0,1.5,11a8.84,8.84,0,0,0,3.36,6.77,1,1,0,1,0,1.28-1.54A6.87,6.87,0,0,1,3.5,11Z"/><path class="cls-2" d="M16.64,6.24a1,1,0,0,0-1.28,1.52A4.28,4.28,0,0,1,17,11a4.28,4.28,0,0,1-1.64,3.24A1,1,0,0,0,16,16a1,1,0,0,0,.64-.24A6.2,6.2,0,0,0,19,11,6.2,6.2,0,0,0,16.64,6.24Z"/><path class="cls-2" d="M8.76,6.36a1,1,0,0,0-1.4-.12A6.2,6.2,0,0,0,5,11a6.2,6.2,0,0,0,2.36,4.76,1,1,0,0,0,1.4-.12,1,1,0,0,0-.12-1.4A4.28,4.28,0,0,1,7,11,4.28,4.28,0,0,1,8.64,7.76,1,1,0,0,0,8.76,6.36Z"/><path class="cls-2" d="M19.14,4.23a1,1,0,1,0-1.28,1.54A6.87,6.87,0,0,1,20.5,11a6.87,6.87,0,0,1-2.64,5.23,1,1,0,0,0,1.28,1.54A8.84,8.84,0,0,0,22.5,11,8.84,8.84,0,0,0,19.14,4.23Z"/></g>

<g id ="qsomosico">
 <path d="M74.6,42C64.2,44.2,57,50.3,54,59.5c-1.1,3.4-1.2,4.6-1.4,12.6c-0.2,8.2-0.3,8.9-1.1,9c-2.1,0.6-2.9,6.8-1.6,11.9c1,3.7,3.6,8.7,6,11.4c1.2,1.4,2.5,3.5,3,4.8c1.2,3.6,3.1,7.2,5.2,9.8l1.8,2.3l-1.9,1.2c-3.5,2-11.8,5.8-23.8,10.9c-7.7,3.3-12.5,5.6-14.3,6.9c-6.7,4.9-13,17.1-15,29.3c-0.4,2.4-0.7,5.2-0.7,6.1c0,1.7,0.1,1.8,2.2,2.7c6.7,2.9,23.3,6.4,34.2,7.2l3.5,0.2l1.5-3.9c2.2-5.7,5.9-11.5,9.6-15.4c3.7-3.8,6.5-5.3,22.2-11.9c13.8-5.8,17.3-7.5,16.9-8.4c-0.1-0.5-0.7-2.1-1.2-3.6c-0.6-1.8-1.8-3.8-3.5-5.8c-2.9-3.5-5.7-8.7-6.9-12.7c-1.1-3.7-1.1-10.9,0-13c0.4-0.8,1.2-1.6,1.7-1.8c1.3-0.4,1.4-1.4,1.4-10.5c0-10,0.6-13.3,3.5-19.2c1.7-3.3,2.9-5,5.2-7.4c3.4-3.3,7.7-6.1,11.5-7.3c2.8-0.9,2.8-1,1.4-5.3c-2.8-8.6-9-14.4-17.9-17.1C90.9,41.4,79.3,41,74.6,42z"/><path d="M163.6,42c-7,1.5-12.5,4.6-16.2,9.3c-2.3,2.8-4.8,8-5.3,11.2l-0.3,1.8l2.1,0.6c6.8,1.9,13.7,7.8,17.1,14.9c3,6,3.5,9.2,3.5,20v9l1.3,0.7c1.9,1,2.6,3.1,2.5,7.9c0,6.8-2.4,12.8-7.5,19.3c-1.9,2.4-3.1,4.5-4,6.8c-0.6,1.8-1.2,3.4-1.2,3.5c0,0.3,8.4,4.2,17.2,7.8c15.8,6.6,18.5,8.1,22.2,11.9s7.2,9.5,9.6,15.3l1.6,3.9h1.7c7.1,0,28.3-4.2,35.2-7l2.8-1.2l-0.1-3.6c-0.3-9.5-5.3-22.6-11.5-30.1c-3-3.6-6.1-5.4-18.3-10.6c-12-5.1-20.3-8.9-23.8-10.9l-1.9-1.2l1.8-2.4c1.9-2.4,5.5-9.5,5.5-10.8c0-0.4,1.1-1.9,2.3-3.4c2.6-3,5.2-7.9,6.2-11.7c1.3-5.1,0.6-11.3-1.6-11.9c-0.8-0.2-0.9-0.9-1.1-9c-0.2-8.1-0.3-9.2-1.5-12.5c-3-8.7-8.7-14.2-17.5-16.8c-3.2-1-5-1.2-10.9-1.3C168.9,41.4,165.7,41.5,163.6,42z"/><path d="M121,69c-9.4,1.4-16.7,6.2-20.6,13.6c-2.4,4.5-3,7.8-3.3,17.2l-0.2,8.1l-1.2,1c-1.6,1.2-2.1,4.6-1.5,9.1c0.6,4.9,3.5,10.8,7.1,14.6c0.8,0.9,1.8,2.8,2.3,4.2c1.1,3.4,3.2,7.3,5.3,9.7c1.6,1.8,1.6,1.9,0.7,2.6c-1.5,1.2-13.4,6.8-22.1,10.5c-12.3,5.1-15,6.4-17.6,8.5c-7.5,5.9-14,20.4-15.1,33.9l-0.2,2.7l2.4,1c7.9,3.5,24.2,6.6,43.7,8.2c11.1,0.9,47.2,0.8,58.1-0.2c18.5-1.8,33.5-4.7,40.9-7.9l2.4-1.1l-0.2-2.7c-0.9-13.6-8.4-29.4-16.3-34.9c-1.4-0.9-8.4-4.2-15.5-7.2c-12.5-5.3-21-9.4-22.9-10.8c-0.9-0.6-0.9-0.7,0.7-2.6c2-2.4,4.2-6.4,5.3-9.7c0.4-1.4,1.4-3.3,2.3-4.2c5.1-5.4,7.9-13.3,7.2-19.8c-0.3-2.4-0.6-3.1-1.6-3.9l-1.2-1l-0.4-9.2c-0.2-5-0.6-10-0.9-11c-1.7-5.8-6.6-12-11.6-14.9C140.1,69.2,130.1,67.7,121,69z"/></g>
 
 <g id="eventico">
 	<path d="M404.344,0H48.642C21.894,0,0,21.873,0,48.664v355.681c0,26.726,21.894,48.642,48.642,48.642
				h355.702c26.726,0,48.642-21.916,48.642-48.642V48.664C452.986,21.873,431.07,0,404.344,0z M148.429,33.629h156.043v40.337
				H148.429V33.629z M410.902,406.372H42.041v-293.88h368.86V406.372z"/>
			<rect x="79.273" y="246.23"  width="48.642" height="48.664"/>
			<rect x="79.273" y="323.26"  width="48.642" height="48.642"/>
			<rect x="160.853" y="169.223" width="48.621" height="48.642"/>
			<rect x="160.853" y="246.23" width="48.621" height="48.664"/>
			<rect x="160.853" y="323.26" width="48.621" height="48.642"/>
			<rect x="242.369" y="169.223" width="48.664" height="48.642"/>
			<rect x="242.369" y="246.23" width="48.664" height="48.664"/>
			<rect x="242.369" y="323.26" width="48.664" height="48.642"/>
			<rect x="323.907" y="169.223" width="48.664" height="48.642"/>
			<rect x="323.907" y="246.23" width="48.664" height="48.664"/></g>
	
<g id="flecha">
<path d="m45.5 32-27-27 6.7 27-6.7 27z"/></g>

<g id="mercaico">
<path d="M465.119,411.688h9.407v-30H138.542c-12.07,0-21.89-9.819-21.89-21.89c0-12.064,9.81-21.879,21.871-21.889H465.68L512,77 L103.937,61.63l-7.73-57.01H0v30h69.997l38.36,283l0.001,0.011c-13.13,9.425-21.707,24.809-21.707,42.168 c0,15.937,7.227,30.211,18.57,39.738c-0.001,0.001-0.003,0.002-0.004,0.003c-11.87,11.4-19.25,27.43-19.25,45.19 c0,34.6,28.05,62.65,62.65,62.65c34.61,0,62.66-28.05,62.66-62.65c0-12.13-3.44-23.45-9.41-33.04l-0.001-0.001H358.63l-0.001,0.001 c-5.97,9.59-9.41,20.91-9.41,33.04c0,34.6,28.05,62.65,62.65,62.65c34.6,0,62.66-28.05,62.66-62.65c0-12.13-3.44-23.45-9.41-33.04 C465.119,411.689,465.119,411.689,465.119,411.688z M126.177,225.688l-7.079-52.223h65.791l2.282,52.223H126.177z M214.919,173.465 h58.739v52.223h-56.457L214.919,173.465z M211.521,95.71l62.137,2.34v45.415h-60.05L211.521,95.71z M393.085,225.688l3.848-52.223 h67.467l-9.269,52.223H393.085z M363.003,225.688h-59.345v-52.223h63.193L363.003,225.688z M360.793,255.688l-3.848,52.222h-53.287 v-52.222H360.793z M273.658,255.688v52.222h-52.864l-2.282-52.222H273.658z M440.53,307.91h-53.503l3.848-52.222H449.8l0,0.002 L440.53,307.91z M469.72,143.46l-0.001,0.005h-70.576l2.99-40.585h0.006l74.29,2.8L469.72,143.46z M372.135,101.75l-3.074,41.715 h-65.403V99.18h0.001L372.135,101.75z M181.438,94.57h0.004l2.137,48.895h-68.55l-0.001-0.005l-7-51.65L181.438,94.57z M137.318,307.91l-7.08-52.22l0-0.002h58.246l2.282,52.222h-52.223v0c-0.006,0-0.013,0-0.019,0H137.318z M148.618,477.38 c-18,0-32.65-14.65-32.65-32.65c0-18.01,14.65-32.66,32.65-32.66c18.01,0,32.66,14.65,32.66,32.66 C181.278,462.73,166.628,477.38,148.618,477.38z M411.869,477.38c-18,0-32.65-14.65-32.65-32.65c0-18.01,14.65-32.66,32.65-32.66 c18.01,0,32.66,14.65,32.66,32.66C444.53,462.73,429.879,477.38,411.869,477.38z"/></g>
<g id="androico">
    <path d="M311.358,136.395H101.779c-4.662,0-8.441,3.779-8.441,8.441v175.749
		c0,4.662,3.779,8.441,8.441,8.441h37.363v59.228c0,13.742,11.14,24.883,24.883,24.883l0,0c13.742,0,24.883-11.14,24.883-24.883
		v-59.228h34.803v59.228c0,13.742,11.14,24.883,24.883,24.883l0,0c13.742,0,24.883-11.14,24.883-24.883v-59.228h37.882
		c4.662,0,8.441-3.779,8.441-8.441V144.836C319.799,140.174,316.02,136.395,311.358,136.395z"/>
	<path d="M57.856,136.354L57.856,136.354c-13.742,0-24.883,11.14-24.883,24.883v101.065
		c0,13.742,11.14,24.883,24.883,24.883l0,0c13.742,0,24.883-11.14,24.883-24.883V161.237
		C82.738,147.495,71.598,136.354,57.856,136.354z"/>
	<path d="M355.281,136.354L355.281,136.354c-13.742,0-24.883,11.14-24.883,24.883v101.065
		c0,13.742,11.14,24.883,24.883,24.883l0,0c13.742,0,24.883-11.14,24.883-24.883V161.237
		C380.164,147.495,369.024,136.354,355.281,136.354z"/>
	<path d="M103.475,124.069h205.692c5.366,0,9.368-4.943,8.266-10.195
		c-6.804-32.428-27.45-59.756-55.465-75.543l17.584-31.727c1.19-2.148,0.414-4.855-1.734-6.045
		c-2.153-1.193-4.856-0.414-6.046,1.734l-17.717,31.966c-14.511-6.734-30.683-10.495-47.734-10.495
		c-17.052,0-33.224,3.761-47.735,10.495L140.869,2.292c-1.191-2.149-3.898-2.924-6.045-1.734c-2.148,1.19-2.924,3.897-1.734,6.045
		l17.584,31.727c-28.015,15.788-48.661,43.115-55.465,75.544C94.106,119.126,98.108,124.069,103.475,124.069z M267.697,76.786
		c0,5.282-4.282,9.565-9.565,9.565c-5.282,0-9.565-4.282-9.565-9.565c0-5.282,4.282-9.565,9.565-9.565
		C263.415,67.221,267.697,71.504,267.697,76.786z M154.508,67.221c5.282,0,9.565,4.282,9.565,9.565c0,5.282-4.282,9.565-9.565,9.565
		c-5.282,0-9.565-4.282-9.565-9.565C144.943,71.504,149.225,67.221,154.508,67.221z"/></g>
		<g id="winico">
		    <path d="M34.089 6.949s32.8-17.843 60.859 3.654L79.246 64.561s-17.574-12.104-30.623-10.8c-13.049 1.304-30.234 7.554-30.234 7.554l15.7-54.366zM15.621 70.823s17.604-8.188 32.221-7.146c14.615 1.043 26.285 8.91 28.802 10.717l-15.865 54.521s-17.635-11.476-30.162-10.432C18.089 119.53 7.229 121.438 0 125.181l15.621-54.358zM84.859 79.672s16.744 10.888 27.705 10.627c10.799-.258 18.27-1.109 32.921-6.852.114-.045.412-.258.313-.195-.313.195-15.699 54.031-15.699 54.031s-17.273 8.082-32.935 7.301c-15.658-.783-25.062-9.738-27.929-10.873l15.624-54.039z"/><path d="M103.251 16.295L87.51 69.942s12.788 12.527 30.797 11.482c18.008-1.043 27.795-6.719 30.176-7.52l15.627-54.12s-20.748 8.66-34.32 7.094c-13.571-1.564-22.024-7.335-26.539-10.583z"/></g>
  
<g id="regico">
    <path class="st0" d="M259.993,460.958c14.498,14.498,75.487-23.002,89.985-37.492l59.598-59.606l-52.494-52.485l-59.597,59.597
		C282.996,385.462,245.504,446.46,259.993,460.958z"/>
	<path class="st0" d="M493.251,227.7c-14.498-14.49-37.996-14.49-52.485,0l-71.68,71.678l52.494,52.486l71.671-71.68
		C507.741,265.695,507.741,242.198,493.251,227.7z M399.586,308.882l-9.008-8.999l50.18-50.18l8.991,8.99L399.586,308.882z"/>
	<path class="st0" d="M374.714,448.193c-14.071,14.055-67.572,51.008-104.791,51.008c-0.008,0,0,0-0.008,0
		c-17.47,0-28.484-7.351-34.648-13.516c-44.758-44.775,36.604-138.56,37.492-139.439l4.123-4.124
		c-3.944-4.354-5.644-10.348-5.644-22.302c0-8.836,0-25.256,0-40.403c11.364-12.619,15.497-11.048,25.103-60.596
		c19.433,0,18.178-25.248,27.34-47.644c7.479-18.238,1.212-25.632-5.072-28.655c5.14-66.463,5.14-112.236-70.296-126.435
		c-27.349-23.438-68.606-15.48-88.158-11.57c-19.536,3.911-37.159,0-37.159,0l3.355,31.49
		C97.74,70.339,112.05,116.112,107.44,142.923c-5.994,3.27-11.407,10.809-4.269,28.254c9.17,22.396,7.906,47.644,27.339,47.644
		c9.614,49.548,13.747,47.976,25.111,60.596c0,15.148,0,31.567,0,40.403c0,25.248-8.58,25.684-28.134,36.612
		c-47.14,26.35-108.572,41.659-119.571,124.01C5.902,495.504,92.378,511.948,213.434,512
		c121.04-0.052,207.524-16.496,205.518-31.558c-3.168-23.702-10.648-41.547-20.68-55.806L374.714,448.193z"/></g>
	<g id="privico">	
	    <path fill="none" d="M0 0h24v24H0z"/>
        <path fill-rule="nonzero" d="M18 8h2a1 1 0 0 1 1 1v12a1 1 0 0 1-1 1H4a1 1 0 0 1-1-1V9a1 1 0 0 1 1-1h2V7a6 6 0 1 1 12 0v1zm-2 0V7a4 4 0 1 0-8 0v1h8zm-9 3v2h2v-2H7zm0 3v2h2v-2H7zm0 3v2h2v-2H7z"/></g>


<g id="sdrico">
  <path d="m472 232h-104.552c-6.255-92.156-8.829-188-48.647-188-23.082 0-31.59 35.003-36.423 65.498-5.344 33.718-8.05 78.479-10.539 122.502h-63.676c-5.943-105.112-11.364-188-46.961-188-23.188 0-31.873 32.531-36.388 57-6.54 35.434-9.11 84.583-12.26 131h-104.554c-4.418 0-8 3.582-8 8s3.582 8 8 8h29.332c2.308 31.734 5.291 63.72 10.698 87.811 4.538 20.212 13.037 47.082 34.371 47.082 23.187 0 31.872-32.53 36.388-57 4.062-22.013 6.603-49.435 8.679-77.893h65.57c5.943 105.112 11.364 188 46.961 188 23.082 0 31.59-35.003 36.423-65.498 5.344-33.718 8.05-78.479 10.539-122.502h65.569c2.076 28.457 4.617 55.879 8.679 77.893 4.516 24.469 13.2 57 36.388 57 21.334 0 29.833-26.87 34.371-47.082 5.408-24.091 8.39-56.077 10.698-87.811h29.334c4.418 0 8-3.582 8-8s-3.582-8-8-8z"/> </g>
</defs></svg>  